<svg width="62" height="73" viewBox="0 0 62 73" fill="none" xmlns="http://www.w3.org/2000/svg">
<g clip-path="url(#clip0)">
<path d="M54.7206 60.8078C56.4968 59.7668 57.1724 57.333 56.2296 55.3718C55.2868 53.4106 53.0827 52.6646 51.3065 53.7056C49.5304 54.7466 48.8548 57.1804 49.7976 59.1416C50.7403 61.1028 52.9445 61.8488 54.7206 60.8078Z" fill="#484B51"/>
<path d="M50.2987 58.8467L39.392 50.5264C39.392 50.5264 31.8572 60.3253 30.3459 59.4265C28.9611 58.6046 33.3989 47.4993 33.3989 47.4993L13.8367 28.9927C13.8367 28.9927 6.35413 16.8111 7.3377 15.4732C8.39585 14.0275 20.0399 20.1253 20.0399 20.1253L40.1219 37.6762C40.1219 37.6762 47.4167 30.6745 48.7235 31.542C50.7608 32.8999 43.6397 43.3515 43.6397 43.3515L53.366 53.6077" fill="#484B51"/>
</g>
<g clip-path="url(#clip1)">
<path d="M6.30736 60.2933C4.55218 59.2097 3.92482 56.7603 4.90612 54.8222C5.88741 52.8842 8.10576 52.1915 9.86094 53.275C11.6161 54.3585 12.2435 56.808 11.2622 58.746C10.2809 60.6841 8.06254 61.3768 6.30736 60.2933Z" fill="#999CA3"/>
<path d="M10.7669 58.4391L21.8354 50.3834C21.8354 50.3834 29.1749 60.3615 30.7036 59.4993C32.1043 58.711 27.887 47.5014 27.887 47.5014L47.8101 29.4704C47.8101 29.4704 55.5315 17.4719 54.5746 16.1106C53.5453 14.6398 41.7835 20.4557 41.7835 20.4557L21.3596 37.5187C21.3596 37.5187 14.2048 30.343 12.8812 31.1789C10.8176 32.4873 17.7305 43.108 17.7305 43.108L7.80394 53.1275" fill="#999CA3"/>
</g>
<defs>
<clipPath id="clip0">
<rect width="31.1926" height="63.3181" fill="white" transform="matrix(0.862741 -0.505646 0.43325 0.901273 6.75964 15.7724)"/>
</clipPath>
<clipPath id="clip1">
<rect width="31.2524" height="63.2094" fill="white" transform="matrix(-0.850918 -0.525298 -0.451727 0.892156 55.1466 16.4236)"/>
</clipPath>
</defs>
</svg>
