<svg width="505" height="103" viewBox="0 0 505 103" fill="none" xmlns="http://www.w3.org/2000/svg">
<path d="M40.8301 18.2C49.4701 18.2 54.2221 25.832 54.2221 33.896C54.2221 41.96 49.0381 49.304 40.2541 49.304H19.2301V18.2H40.8301ZM19.2301 101V65.72H41.1181C51.4861 65.72 59.2621 62.696 64.5901 56.504C69.9181 50.312 72.6541 42.68 72.6541 33.896C72.6541 25.112 69.9181 17.48 64.5901 11.288C59.2621 4.95199 51.4861 1.784 41.1181 1.784H0.798063V101H19.2301ZM151.754 101V84.584H107.258V60.248H144.986V43.976H107.258V18.2H150.314V1.784H88.9699V101H151.754ZM214.72 56.072L253.024 1.784H230.992L205.216 39.944L179.728 1.784H157.84L195.856 55.784V101H214.72V56.072ZM383.778 15.752C374.418 5.67199 362.322 0.631996 347.778 0.631996C333.666 0.631996 321.714 5.67199 311.922 15.608C302.13 25.544 297.234 37.496 297.234 51.608C297.234 65.576 302.13 77.672 311.922 87.608C321.714 97.544 333.666 102.44 347.778 102.44C377.298 102.44 395.73 84.872 395.73 49.736H347.346V64.856H374.562C374.418 70.904 371.538 75.8 366.21 79.688C360.882 83.576 354.834 85.448 347.778 85.448C338.706 85.448 331.074 82.136 324.882 75.512C318.69 68.888 315.666 60.968 315.666 51.608C315.666 42.248 318.69 34.328 324.882 27.848C331.074 21.224 338.706 17.912 347.778 17.912C356.562 17.912 364.05 21.08 370.242 27.56L383.778 15.752ZM492.622 15.752C483.262 5.67199 471.166 0.631996 456.622 0.631996C442.51 0.631996 430.558 5.67199 420.766 15.608C410.974 25.544 406.078 37.496 406.078 51.608C406.078 65.576 410.974 77.672 420.766 87.608C430.558 97.544 442.51 102.44 456.622 102.44C486.142 102.44 504.574 84.872 504.574 49.736H456.19V64.856H483.406C483.262 70.904 480.382 75.8 475.054 79.688C469.726 83.576 463.678 85.448 456.622 85.448C447.55 85.448 439.918 82.136 433.726 75.512C427.534 68.888 424.51 60.968 424.51 51.608C424.51 42.248 427.534 34.328 433.726 27.848C439.918 21.224 447.55 17.912 456.622 17.912C465.406 17.912 472.894 21.08 479.086 27.56L492.622 15.752Z" fill="white"/>
<path d="M271.104 80.552C264.912 80.552 259.872 85.304 259.872 91.496C259.872 97.688 264.912 102.44 271.104 102.44C277.44 102.44 282.624 97.832 282.624 91.496C282.624 85.16 277.44 80.552 271.104 80.552Z" fill="#3F92F4"/>
</svg>
