<svg width="46" height="64" viewBox="0 0 46 64" fill="none" xmlns="http://www.w3.org/2000/svg">
<g clip-path="url(#clip0)">
<path d="M7.44843 26.2195C7.44843 26.2195 4.08714 25.541 3.16307 26.4641C2.25574 27.3678 9.37476 41.8955 9.37476 41.8955L9.57576 57.5716H10.8041H36.5582L36.5247 41.8955C36.5247 41.8955 45.249 27.5068 44.2021 26.4641C43.1719 25.4382 39.3137 26.2195 39.3137 26.2195" fill="#484B51"/>
<path d="M7.56011 25.8191C6.29265 25.5716 4.51987 25.2463 3.31941 25.8636C2.53492 26.2695 2.62147 26.8729 2.80014 27.6319C3.48692 30.5986 4.99727 33.4875 6.25356 36.2457C6.89288 37.6498 7.54894 39.0484 8.21339 40.4414C8.4116 40.8557 8.60144 41.2727 8.81082 41.6814C8.91412 41.8844 9.01462 42.2737 8.96158 41.9233C9.08163 42.7158 8.98391 43.6027 8.99229 44.4007C9.01462 46.0412 9.03417 47.6816 9.0565 49.3221C9.09279 52.0719 9.12629 54.8246 9.16259 57.5744C9.16538 57.7996 9.35243 57.9915 9.58135 57.9915C17.3871 57.9915 25.1929 57.9915 32.9987 57.9915C34.188 57.9915 35.3773 57.9915 36.5638 57.9915C36.7899 57.9915 36.9826 57.7996 36.9826 57.5744C36.977 55.1916 36.9714 52.8087 36.9658 50.4287C36.963 48.6381 36.9575 46.8475 36.9547 45.0569C36.9519 44.0698 36.8374 43.0105 36.9491 42.029C36.9798 41.7649 36.8039 42.282 36.9993 41.9317C37.2003 41.5674 37.4293 41.2143 37.6414 40.8557C38.4092 39.5628 39.1657 38.2615 39.9084 36.9547C41.5304 34.0992 43.3255 31.1686 44.4143 28.0573C44.7046 27.2315 44.9894 26.364 44.0709 25.8691C42.7113 25.1379 40.6482 25.5355 39.2048 25.8218C38.6772 25.9275 38.9005 26.731 39.4282 26.6254C40.2545 26.4613 43.5014 25.8858 43.8755 26.7227C44.1407 27.3205 43.1552 28.961 42.9263 29.4587C41.5583 32.4226 39.9223 35.2698 38.2891 38.0947C37.7056 39.1012 37.1166 40.1049 36.5191 41.1059C36.293 41.4812 36.1618 41.7009 36.1115 42.1208C36.0027 43.03 36.1171 44.0254 36.1171 44.9401C36.1199 46.5833 36.1255 48.2294 36.1283 49.8726C36.1339 52.4389 36.1395 55.0053 36.1451 57.5716C36.2846 57.4326 36.4242 57.2936 36.5638 57.1546C28.7413 57.1546 20.9159 57.1546 13.0934 57.1546C11.9236 57.1546 10.7511 57.1546 9.58135 57.1546C9.72094 57.2936 9.86053 57.4326 10.0001 57.5716C9.93591 52.6753 9.87449 47.7817 9.81028 42.8854C9.79353 41.5813 9.29938 40.7861 8.72986 39.5878C7.37027 36.7267 6.03022 33.849 4.84093 30.9156C4.39983 29.8257 3.57905 28.3548 3.55113 27.1509C3.53159 26.339 4.25186 26.4169 5.04473 26.403C5.81246 26.3891 6.58858 26.478 7.34235 26.6254C7.86441 26.7255 8.09055 25.9219 7.56011 25.8191Z" fill="#2A2E38"/>
<path d="M0.790074 21.9459C2.60472 24.2398 19.6345 36.1957 22.9846 36.1957C26.6139 36.1957 44.2021 23.9618 45.1457 22.6577C46.0251 21.4399 45.3746 18.4537 44.2021 17.2887C43.0854 16.1765 29.9417 16.0681 29.9417 16.0681C29.9417 16.0681 30.8016 4.22068 28.8474 2.27438C26.4436 -0.119575 18.4731 0.0945178 16.5636 1.99633C14.7043 3.8481 15.0979 16.246 15.0979 16.246C15.0979 16.246 2.71081 16.0709 1.76719 17.0107C0.756573 18.0172 -0.0697908 20.8588 0.790074 21.9459Z" fill="#999CA3"/>
<path d="M0.493056 22.2421C1.72423 23.7436 3.53329 24.9058 5.07714 26.0541C7.71816 28.0199 10.4318 29.8911 13.2012 31.6706C15.5742 33.1942 17.9975 34.7374 20.5826 35.8885C22.1544 36.5892 23.2599 36.7671 24.882 36.1387C27.3583 35.1767 29.6754 33.7642 31.934 32.3879C34.6504 30.7308 37.3109 28.9791 39.9212 27.1635C41.6493 25.9623 43.5059 24.7779 45.0553 23.3404C46.6326 21.8751 46.0994 18.2272 44.4439 16.951C43.7711 16.431 42.7102 16.3754 41.9034 16.267C40.3065 16.0529 38.6956 15.9528 37.0876 15.8694C34.709 15.747 32.3248 15.6747 29.9407 15.6553C30.0802 15.7943 30.2198 15.9333 30.3594 16.0723C30.5381 13.5783 30.5995 11.0648 30.5185 8.56796C30.4376 6.1045 30.5828 2.55111 28.0674 1.2165C25.1444 -0.337764 20.5324 -0.362787 17.5117 0.927333C15.0326 1.9839 15.0382 5.14247 14.8511 7.46413C14.6166 10.378 14.5859 13.3253 14.678 16.2475C14.8176 16.1085 14.9572 15.9695 15.0968 15.8304C11.8332 15.786 8.55011 15.7915 5.29211 16.0001C4.20053 16.0696 2.45009 15.975 1.52043 16.6757C0.155252 17.7017 -0.492439 20.7268 0.428846 22.1587C0.71919 22.6091 1.44505 22.1921 1.15191 21.7389C0.283674 20.3876 1.14912 17.4209 2.82139 17.0955C4.34291 16.798 5.94818 16.7869 7.49202 16.7341C10.027 16.6479 12.5647 16.6312 15.0996 16.6674C15.3201 16.6701 15.5239 16.4727 15.5184 16.2503C15.4569 14.2539 15.4681 12.2548 15.5379 10.2585C15.591 8.69586 15.6775 7.13048 15.8897 5.579C16.0265 4.57526 16.1353 3.08495 16.8612 2.29531C17.8439 1.22484 20.0103 1.06635 21.3504 0.980161C23.1343 0.866164 25.0188 0.97182 26.7189 1.55015C28.1232 2.0256 28.8686 2.70403 29.212 4.12205C29.5721 5.61514 29.6391 7.18609 29.6866 8.71532C29.762 11.1649 29.7006 13.6283 29.5247 16.0723C29.5079 16.2976 29.7285 16.4866 29.9434 16.4894C34.1702 16.5256 38.6454 16.4171 42.7995 17.2485C44.0921 17.507 44.5556 18.2355 44.9157 19.5507C45.2312 20.7018 45.3261 21.9863 44.3853 22.8232C42.8805 24.1606 41.1524 25.295 39.5025 26.4461C35.044 29.5463 30.4208 32.7577 25.4515 35.0015C23.8434 35.7272 22.8244 35.9497 21.1829 35.249C18.8545 34.2564 16.6686 32.8801 14.5357 31.5343C11.6797 29.7326 8.88791 27.8252 6.16593 25.8289C4.46016 24.5777 2.44171 23.307 1.0877 21.6555C0.744316 21.2356 0.155252 21.8278 0.493056 22.2421Z" fill="#2A2E38"/>
<path d="M38.4706 57.7051H7.35072V63.5829H38.4706V57.7051Z" fill="#999CA3"/>
<path d="M7.76948 63.5829C7.76948 61.6227 7.76948 59.6653 7.76948 57.7051C7.6299 57.8441 7.49031 57.9831 7.35072 58.1222C16.4351 58.1222 25.5224 58.1222 34.6068 58.1222C35.8938 58.1222 37.1836 58.1222 38.4706 58.1222C38.331 57.9831 38.1914 57.8441 38.0518 57.7051C38.0518 59.6653 38.0518 61.6227 38.0518 63.5829C38.1914 63.4439 38.331 63.3049 38.4706 63.1659C29.3862 63.1659 20.299 63.1659 11.2145 63.1659C9.92752 63.1659 8.63773 63.1659 7.35072 63.1659C6.81191 63.1659 6.81191 64 7.35072 64C16.4351 64 25.5224 64 34.6068 64C35.8938 64 37.1836 64 38.4706 64C38.6967 64 38.8893 63.8081 38.8893 63.5829C38.8893 61.6227 38.8893 59.6653 38.8893 57.7051C38.8893 57.4799 38.6967 57.288 38.4706 57.288C29.3862 57.288 20.299 57.288 11.2145 57.288C9.92752 57.288 8.63773 57.288 7.35072 57.288C7.12459 57.288 6.93195 57.4799 6.93195 57.7051C6.93195 59.6653 6.93195 61.6227 6.93195 63.5829C6.93195 64.1195 7.76948 64.1195 7.76948 63.5829Z" fill="#2A2E38"/>
</g>
<defs>
<clipPath id="clip0">
<rect width="46" height="64" fill="white"/>
</clipPath>
</defs>
</svg>
